<svg width="447" height="293" viewBox="0 0 447 293" fill="none" xmlns="http://www.w3.org/2000/svg">
<g clip-path="url(#clip0_1717_2158)">
<path d="M439.256 69.0485L432.316 102.952L427.787 98.5677L420.117 104.048L414.273 96.741L401.123 106.313L389.947 87.5346L377.455 94.8413L372.487 88.046L356.562 96.9603L351.814 86.7308L362.918 32.8071L422.674 45.1555L439.256 69.0485Z" fill="#EBEBEB"/>
<path d="M422.674 45.1555L439.256 69.0485L418.583 64.8106L422.674 45.1555Z" fill="#DBDBDB"/>
<path d="M430.782 109.674L420.555 159.36L340.126 142.773L350.353 93.5261L355.101 103.756L371.027 94.7683L375.921 101.637L388.486 94.3299L399.663 113.035L412.812 103.536L418.656 110.77L426.326 105.29L430.782 109.674Z" fill="#EBEBEB"/>
<path d="M315.727 103.902L233.837 108.943L227.335 3.7995L288.114 0L310.467 18.7052L315.727 103.902Z" fill="#EBEBEB"/>
<path d="M288.113 0L310.467 18.7052L289.355 20.0204L288.113 0Z" fill="#DBDBDB"/>
<path d="M265.395 70.8022L265.102 68.4641C264.299 63.5686 265.614 58.0155 269.924 52.3162C273.796 47.2015 275.841 43.5481 275.622 39.3833C275.33 34.707 272.261 31.7843 266.49 32.0035C263.203 32.2227 259.624 33.4648 257.359 35.3646L254.802 29.7384C257.724 27.4003 262.838 25.6466 267.732 25.3544C278.252 24.7698 283.365 30.9805 283.804 37.995C284.169 44.2057 280.955 48.882 276.791 54.3621C272.992 59.3307 271.75 63.4955 272.335 68.0988L272.554 70.51L265.395 70.8022ZM264.153 83.7352C263.934 80.3741 266.125 77.8167 269.339 77.6706C272.554 77.5244 274.891 79.7165 275.037 83.1506C275.184 86.3656 273.284 88.9229 269.851 89.1421C266.637 89.2883 264.299 86.9501 264.153 83.7352Z" fill="#DBDBDB"/>
<path d="M60.5592 52.9007L52.3044 49.1743L51.1356 51.6586C50.7703 52.3893 50.0398 52.9007 49.2363 52.9007C48.798 52.9007 48.3597 52.9738 47.9213 53.0469C47.1178 53.193 46.3142 52.8277 45.8759 52.1701L44.2688 49.905L36.8906 55.1658L38.4978 57.4309C38.9361 58.0885 39.0091 58.9653 38.6439 59.696C38.4247 60.1344 38.2786 60.4998 38.0594 60.9382C37.7672 61.6688 37.1098 62.2534 36.3062 62.3264L33.5303 62.6187L34.4069 71.606L37.1828 71.3137C37.9864 71.2406 38.79 71.606 39.2283 72.3367C39.3744 72.5559 39.4474 72.702 39.5935 72.9212C39.7396 73.0673 39.8857 73.2865 40.0318 73.4327C40.5432 74.0903 40.6893 74.894 40.324 75.6247L39.1552 78.182L47.41 81.9085L48.5788 79.3511C48.9441 78.6204 49.6746 78.109 50.4781 78.109C50.9164 78.109 51.3548 78.0359 51.7931 77.9628C52.5966 77.8167 53.4002 78.182 53.8385 78.8397L55.4456 81.1047L62.8238 75.8439L61.2167 73.5788C60.7784 72.9212 60.7053 72.0444 61.0706 71.3137C61.2897 70.9484 61.4358 70.51 61.655 70.0716C61.9472 69.3409 62.6046 68.7564 63.4082 68.6833L66.1841 68.391L65.3075 59.4037L62.5316 59.696C61.728 59.7691 60.9245 59.4037 60.4861 58.6731C60.34 58.4539 60.267 58.3077 60.1209 58.0885C59.9748 57.9424 59.8287 57.7232 59.6826 57.5771C59.1712 56.9195 59.0251 56.1157 59.3904 55.312L60.5592 52.9007ZM55.8839 61.2304C58.2946 64.5915 57.491 69.1948 54.2037 71.606C50.8434 74.0172 46.2412 73.2135 43.8305 69.9254C41.4198 66.5643 42.2234 61.9611 45.5107 59.5499C48.871 57.1387 53.4732 57.8693 55.8839 61.2304Z" fill="#EBEBEB"/>
<path d="M433.047 172.439L427.568 175.581L428.518 177.261C428.81 177.773 428.81 178.357 428.445 178.869C428.299 179.161 428.08 179.38 428.007 179.673C427.714 180.184 427.203 180.476 426.692 180.476H424.719V186.833H426.692C427.276 186.833 427.787 187.125 428.007 187.637C428.153 187.929 428.299 188.222 428.445 188.441C428.737 188.952 428.81 189.537 428.518 190.048L427.568 191.729L433.047 194.871L433.997 193.19C434.289 192.679 434.8 192.386 435.385 192.459C435.531 192.459 435.677 192.459 435.823 192.459C435.969 192.459 436.115 192.459 436.261 192.459C436.846 192.459 437.357 192.679 437.649 193.19L438.599 194.871L444.078 191.729L443.128 190.048C442.836 189.537 442.836 188.952 443.201 188.441C443.347 188.148 443.566 187.929 443.639 187.637C443.932 187.125 444.443 186.833 444.954 186.833H446.927V180.476H444.954C444.37 180.476 443.859 180.184 443.639 179.673C443.493 179.38 443.347 179.088 443.201 178.869C442.909 178.357 442.836 177.773 443.128 177.261L444.078 175.581L438.599 172.439L437.649 174.12C437.357 174.631 436.846 174.85 436.261 174.85C436.115 174.85 435.969 174.85 435.823 174.85C435.677 174.85 435.531 174.85 435.385 174.85C434.8 174.85 434.289 174.631 433.997 174.12L433.047 172.439ZM435.823 178.504C438.672 178.504 441.01 180.842 441.01 183.691C441.01 186.541 438.672 188.879 435.823 188.879C432.974 188.879 430.636 186.541 430.636 183.691C430.636 180.842 432.974 178.504 435.823 178.504Z" fill="#EBEBEB"/>
<path d="M77.215 25.8659L72.1744 29.7385L73.3433 31.2729C73.7085 31.7113 73.7085 32.3689 73.4894 32.8804C73.3433 33.1727 73.1972 33.4649 73.1241 33.7572C72.905 34.2687 72.4666 34.7071 71.8822 34.7801L69.9829 34.9993L70.7865 41.2831L72.6858 41.0639C73.2702 40.9909 73.7816 41.2831 74.1468 41.7215C74.2929 42.0138 74.5121 42.233 74.7312 42.4522C75.0965 42.8906 75.2426 43.4752 75.0234 43.9866L74.2929 45.8133L80.137 48.2245L80.8675 46.3978C81.0867 45.8864 81.598 45.521 82.1824 45.521C82.3286 45.521 82.4747 45.521 82.6208 45.448C82.7669 45.448 82.913 45.3749 83.0591 45.3749C83.6435 45.3018 84.1548 45.448 84.5201 45.9594L85.6889 47.4939L90.7294 43.6213L89.5606 42.0869C89.1954 41.6485 89.1954 40.9909 89.4145 40.4794C89.5606 40.1871 89.7067 39.8949 89.7798 39.6026C89.9989 39.0911 90.4372 38.6527 91.0216 38.5796L92.921 38.3604L92.1174 32.0767L90.2181 32.2959C89.6337 32.3689 89.1223 32.0766 88.7571 31.6382C88.611 31.346 88.3918 31.1268 88.1726 30.9076C87.8074 30.4692 87.6613 29.8846 87.8804 29.3732L88.611 27.5465L82.7669 25.1353L82.0363 26.9619C81.8172 27.4734 81.3058 27.8387 80.7214 27.8387C80.5753 27.8387 80.4292 27.8387 80.2831 27.9118C80.137 27.9118 79.9909 27.9849 79.8448 27.9849C79.2604 28.0579 78.676 27.9118 78.3838 27.4003L77.215 25.8659ZM80.7945 31.5652C83.6435 31.1998 86.2733 33.1727 86.6386 36.0223C87.0038 38.8719 85.0314 41.5023 82.1824 41.8677C79.3335 42.233 76.7036 40.2602 76.3384 37.4106C75.9731 34.4879 77.9455 31.9305 80.7945 31.5652Z" fill="#EBEBEB"/>
<path d="M39.5936 190.706C39.8858 183.618 39.7397 176.531 39.3014 169.516C38.3517 154.976 35.9411 140.508 32.6538 126.26C30.8275 118.296 28.4898 110.405 26.1522 102.513C26.0792 102.294 25.7139 102.367 25.7869 102.587C33.1651 130.279 39.1553 158.848 38.7901 187.637C38.644 195.674 37.7673 203.639 36.9638 211.603C36.9638 211.822 37.329 211.895 37.329 211.676C38.7901 204.881 39.3014 197.72 39.5936 190.706Z" fill="#EBEBEB"/>
<path d="M25.7869 102.66C25.7869 102.66 14.6831 130.937 17.1669 137.586C19.6506 144.235 24.8373 145.623 24.8373 145.623C24.8373 145.623 18.0435 155.341 22.7918 164.475C27.5402 173.608 38.1326 173.17 38.8631 183.545C38.717 183.545 39.3014 140.289 25.7869 102.66Z" fill="#EBEBEB"/>
<path d="M37.5482 165.717C37.5482 165.644 37.5482 165.644 37.5482 165.571C36.0141 146.354 32.5807 127.21 26.7366 108.724C26.7366 108.651 26.6635 108.651 26.6635 108.724C28.8551 116.981 30.8274 125.311 32.5076 133.64C31.0466 132.179 29.1473 131.302 27.1749 130.644C27.1018 130.644 27.1018 130.717 27.1749 130.717C29.2203 131.594 31.1927 132.617 32.6537 134.371C32.9459 135.978 33.3112 137.659 33.6034 139.266C31.1196 136.49 27.6862 135.102 24.1798 133.786C24.1067 133.786 24.1067 133.859 24.1798 133.859C27.7593 135.321 31.3388 137.22 33.8225 140.289C34.6992 144.966 35.4297 149.715 36.0871 154.391C34.2608 152.492 31.9963 151.176 29.4395 150.592C29.3664 150.592 29.2934 150.665 29.3664 150.738C31.9963 151.469 34.2608 153.003 36.0871 155.049C36.0871 155.049 36.0871 155.049 36.1602 155.049C36.3793 156.729 36.5985 158.41 36.8176 160.017C35.4297 158.848 33.8956 157.899 32.1424 157.241C32.0693 157.241 32.0693 157.314 32.1424 157.314C33.8956 158.045 35.4297 159.141 36.8176 160.383H36.8907C37.1098 161.99 37.2559 163.525 37.402 165.132C34.8453 162.063 31.7041 159.798 27.9784 158.41C27.9054 158.41 27.8323 158.483 27.9054 158.556C31.558 160.164 34.7722 162.648 37.1829 165.717C37.2559 165.79 37.329 165.79 37.402 165.79C37.6212 168.201 37.8404 170.685 38.0595 173.097C38.0595 173.097 38.1326 173.17 38.1326 173.097C37.9134 170.685 37.7673 168.201 37.5482 165.717Z" fill="white"/>
<path d="M28.5631 127.868C26.6638 126.553 24.18 125.968 21.8424 125.749C21.7693 125.749 21.7693 125.822 21.8424 125.822C24.2531 126.187 26.2255 127.064 28.49 128.014C28.5631 128.014 28.6361 127.941 28.5631 127.868Z" fill="white"/>
<path d="M29.9508 157.752C28.4167 156.803 26.6635 156.291 24.9103 155.999C24.8372 155.999 24.8372 156.072 24.9103 156.072C26.6635 156.364 28.2706 157.022 29.8777 157.825C29.9508 157.972 30.0238 157.825 29.9508 157.752Z" fill="white"/>
<path d="M68.8874 138.024C64.2121 141.312 59.756 145.039 56.0304 149.277C52.0126 153.807 49.0175 158.922 46.9721 164.621C42.7351 176.312 40.4705 188.879 40.2514 201.301C40.1053 208.242 40.7627 215.11 42.2237 221.906C42.2968 222.125 42.6621 222.052 42.589 221.833C40.7627 209.923 40.8358 197.72 42.8082 185.81C44.7075 174.12 47.7026 161.406 55.1538 151.907C59.1716 146.719 64.2121 142.628 69.2527 138.463C69.4718 138.243 69.1066 137.878 68.8874 138.024Z" fill="#EBEBEB"/>
<path d="M41.8584 192.898C41.8584 192.898 45.6571 186.468 51.282 180.915C56.8339 175.362 61.5822 171.416 62.2397 167.69C62.9702 164.036 56.6878 161.26 56.6878 161.26C56.6878 161.26 64.4312 162.648 66.4766 159.433C68.5951 156.218 69.6178 137.44 69.6178 137.44C69.6178 137.44 55.592 147.45 49.0174 161.479C42.5159 175.581 41.8584 192.898 41.8584 192.898Z" fill="#EBEBEB"/>
<path d="M64.7237 142.262C58.8066 148.034 52.8894 154.245 49.383 161.844C48.2141 164.475 47.1914 167.178 46.3148 169.955C46.1687 170.539 45.9496 171.051 45.8035 171.635V171.708C44.0502 177.407 42.8814 183.253 41.7856 189.025C41.7856 189.098 41.8587 189.098 41.8587 189.025C42.4431 186.102 43.1006 183.18 43.9041 180.184H43.9772C45.146 179.673 46.3879 179.38 47.6297 179.234C47.7028 179.234 47.7028 179.088 47.6297 179.088C46.3879 179.161 45.146 179.38 43.9772 179.746C44.6346 177.115 45.3651 174.412 46.2418 171.854C48.9447 171.197 51.7936 170.831 54.5696 170.758V170.685C51.7936 170.539 49.0908 170.831 46.3879 171.416C46.534 170.978 46.6801 170.539 46.8262 170.101C48.6525 169.662 50.4787 169.37 52.3781 169.151V169.078C50.5518 169.151 48.7255 169.297 46.9723 169.735C47.7028 167.47 48.5794 165.278 49.456 163.086C50.1865 161.26 51.1362 159.579 52.0859 157.972C53.6199 157.606 55.0079 157.314 56.542 157.168C56.615 157.168 56.615 157.095 56.542 157.095C55.154 157.022 53.693 157.095 52.3781 157.533C53.1086 156.364 53.9121 155.195 54.7157 154.026C57.8569 153.295 61.0711 152.711 64.2854 153.295C64.3584 153.295 64.3584 153.222 64.2854 153.222C61.2172 152.418 58.1491 152.857 55.154 153.514C55.5193 153.076 55.8115 152.638 56.1767 152.199C58.0761 151.615 60.0484 151.322 62.0208 151.249C62.0939 151.249 62.0939 151.176 62.0208 151.176C60.1945 151.03 58.2952 151.176 56.542 151.688C59.1718 148.473 62.0208 145.404 64.8698 142.408C65.0159 142.189 64.8698 142.116 64.7237 142.262Z" fill="white"/>
<path d="M64.5776 155.049C63.6279 154.976 62.7513 154.83 61.8016 154.976C61.6555 154.976 61.7286 155.195 61.8016 155.195C62.7513 155.195 63.6279 155.122 64.5776 155.195C64.6506 155.122 64.6506 155.049 64.5776 155.049Z" fill="white"/>
<path d="M54.4965 173.243C53.0355 173.243 51.5745 173.608 50.1865 174.119V174.193C51.6475 173.827 53.0355 173.681 54.4965 173.462C54.6426 173.389 54.6426 173.243 54.4965 173.243Z" fill="white"/>
<path d="M51.4284 166.959C50.844 166.959 50.1866 167.032 49.6022 167.105C49.5291 167.105 49.5291 167.178 49.6022 167.178C50.1866 167.178 50.844 167.178 51.4284 167.105C51.5745 167.105 51.5745 166.959 51.4284 166.959Z" fill="white"/>
<path d="M0.730672 157.972C5.25984 159.506 9.71596 161.552 13.7338 164.109C18.0438 166.813 21.6233 170.32 24.6184 174.412C30.7547 182.888 35.503 192.532 38.5712 202.543C40.2513 208.169 41.3471 213.868 41.7124 219.714C41.7124 219.933 41.4202 219.933 41.4202 219.714C40.1052 209.63 37.2562 199.766 32.9462 190.56C28.7093 181.572 23.3035 171.927 15.1217 165.936C10.6656 162.648 5.6251 160.529 0.584569 158.337C0.292365 158.191 0.438467 157.825 0.730672 157.972Z" fill="#EBEBEB"/>
<path d="M35.2837 196.113C35.2837 196.113 30.6815 191.802 24.9104 188.587C19.1394 185.372 14.3911 183.253 12.9301 180.403C11.469 177.554 15.9982 173.9 15.9982 173.9C15.9982 173.9 10.0811 176.823 7.59732 174.704C5.18663 172.585 0 157.606 0 157.606C0 157.606 13.6606 162.502 22.2075 172.293C30.7545 182.157 35.2837 196.113 35.2837 196.113Z" fill="#EBEBEB"/>
<path d="M34.5531 193.044C27.6863 180.184 18.628 168.566 6.13623 160.967C9.42353 163.086 12.4917 165.497 15.2676 168.128C12.7108 168.055 10.154 168.493 7.88946 169.662C7.81641 169.662 7.88946 169.735 7.96251 169.735C10.4462 168.859 12.8569 168.347 15.4868 168.493C15.5598 168.493 15.5598 168.493 15.5598 168.493C15.9981 168.932 16.4364 169.37 16.8748 169.808C15.5598 169.881 14.2449 170.028 12.93 170.32V170.393C14.318 170.101 15.7059 170.028 17.0939 170.028C19.3585 172.293 21.55 174.777 23.5224 177.334C22.6458 177.188 21.6231 177.261 20.7465 177.554C20.6734 177.554 20.6734 177.7 20.7465 177.627C21.7692 177.481 22.7188 177.554 23.6685 177.554C24.0338 178.065 24.399 178.503 24.7643 179.015C21.9883 178.869 19.2124 179.088 16.4364 179.819C16.3634 179.819 16.4364 179.892 16.4364 179.892C19.2854 179.307 22.0614 179.161 24.9834 179.307C25.3487 179.746 25.6409 180.257 26.0061 180.695C24.326 180.622 22.7188 180.842 21.0387 181.28C20.9656 181.28 20.9656 181.426 21.0387 181.353C22.7188 180.988 24.399 180.842 26.1522 180.988C27.6133 183.034 29.0012 185.08 30.3892 187.198C29.6587 187.052 28.9282 187.125 28.1977 187.345C28.1246 187.345 28.1977 187.418 28.1977 187.418C29.0012 187.345 29.7318 187.418 30.5353 187.564C31.7772 189.464 32.946 191.363 34.0418 193.263C34.407 193.336 34.6262 193.19 34.5531 193.044Z" fill="white"/>
<path d="M23.9609 182.376C22.646 182.23 21.258 182.449 20.0161 182.888V182.961C21.331 182.741 22.646 182.595 23.9609 182.522C24.0339 182.522 24.0339 182.376 23.9609 182.376Z" fill="white"/>
<path d="M11.9802 166.739C11.3958 166.666 10.7383 166.739 10.1539 166.813C10.0809 166.813 10.0809 166.959 10.1539 166.886C10.7383 166.813 11.3227 166.813 11.9802 166.813C12.1263 166.886 12.1263 166.739 11.9802 166.739Z" fill="white"/>
<path d="M52.8891 238.492H22.0615L26.4446 206.269L27.5404 198.012H47.4103L48.506 206.269L52.8891 238.492Z" fill="#DBDBDB"/>
<path d="M48.5063 206.269H26.4448L27.5406 198.012H47.4105L48.5063 206.269Z" fill="#C7C7C7"/>
<path d="M50.2595 195.163H24.7646V202.177H50.2595V195.163Z" fill="#DBDBDB"/>
<path d="M2.41064 238.492L58.0026 238.346L113.521 238.273L224.559 238.126L335.597 238.273L391.116 238.346L446.635 238.492L391.116 238.711L335.597 238.784L224.559 238.857L113.521 238.784L58.0026 238.711L2.41064 238.492Z" fill="#263238"/>
<path d="M226.02 293C341.689 293 435.458 282.728 435.458 270.057C435.458 257.386 341.689 247.114 226.02 247.114C110.351 247.114 16.5825 257.386 16.5825 270.057C16.5825 282.728 110.351 293 226.02 293Z" fill="#EBEBEB"/>
<path d="M177.222 266.257C175.542 266.842 126.744 266.988 124.844 265.819C124.114 265.381 123.676 258.293 123.383 249.671C123.31 247.844 123.237 245.872 123.237 243.972L119.292 217.96L151.946 217.741L155.014 243.753L154.868 249.452C154.868 249.452 173.569 257.782 175.469 259.243C177.441 260.777 178.975 265.673 177.222 266.257Z" fill="#EB9481"/>
<path d="M177.222 266.257C175.542 266.842 126.744 266.988 124.844 265.819C123.968 265.308 123.53 254.932 123.237 243.972L155.015 243.753L154.868 249.452C154.868 249.452 173.57 257.782 175.469 259.243C177.441 260.777 178.975 265.673 177.222 266.257Z" fill="white"/>
<path d="M177.222 266.257C175.542 266.842 126.744 266.988 124.844 265.819C124.114 265.381 123.676 258.293 123.383 249.671L154.868 249.452C154.868 249.452 173.569 257.782 175.469 259.243C177.441 260.777 178.975 265.673 177.222 266.257Z" fill="#A6A6A6"/>
<path d="M176.565 264.284C168.383 264.138 135.364 264.211 127.255 264.65C127.182 264.65 127.182 264.723 127.255 264.723C135.364 265.088 168.383 264.723 176.565 264.431C176.711 264.431 176.711 264.284 176.565 264.284Z" fill="#263238"/>
<path d="M172.401 257.489C170.428 257.416 168.602 258.366 167.506 259.535C166.484 260.631 165.607 262.239 165.68 263.919C165.68 263.992 165.753 263.992 165.753 263.919C166.191 260.704 169.113 257.928 172.328 257.635C172.474 257.562 172.474 257.489 172.401 257.489Z" fill="#263238"/>
<path d="M158.083 250.256C154.795 250.256 150.997 251.425 149.024 254.055C148.951 254.128 149.097 254.274 149.17 254.201C152.092 252.667 154.941 251.498 158.156 250.621C158.375 250.621 158.302 250.256 158.083 250.256Z" fill="#263238"/>
<path d="M160.639 251.206C157.352 251.206 153.553 252.375 151.581 255.005C151.508 255.078 151.654 255.224 151.727 255.151C154.649 253.617 157.498 252.448 160.712 251.571C160.858 251.571 160.858 251.206 160.639 251.206Z" fill="#263238"/>
<path d="M163.123 252.229C159.836 252.229 156.037 253.398 154.065 256.028C153.992 256.101 154.138 256.247 154.211 256.174C157.133 254.64 159.982 253.471 163.196 252.594C163.415 252.521 163.342 252.229 163.123 252.229Z" fill="#263238"/>
<path d="M165.68 253.178C162.393 253.178 158.594 254.347 156.621 256.978C156.548 257.051 156.695 257.197 156.768 257.124C159.69 255.589 162.539 254.42 165.753 253.544C165.972 253.544 165.899 253.178 165.68 253.178Z" fill="#263238"/>
<path d="M129.3 256.832C125.648 256.832 125.648 262.531 129.3 262.531C133.026 262.531 132.953 256.832 129.3 256.832Z" fill="#263238"/>
<path d="M161.589 241.488C159.909 240.099 157.863 241.488 156.841 242.876C155.16 245.214 154.065 248.429 153.918 251.279C153.918 251.352 153.992 251.352 153.992 251.352C154.065 251.571 154.357 251.79 154.576 251.644C156.914 250.037 159.616 248.575 161.37 246.31C162.392 244.995 163.123 242.803 161.589 241.488ZM157.571 248.502C156.475 249.306 155.306 250.11 154.211 250.986C154.795 249.379 155.306 247.698 156.037 246.091C156.402 245.36 156.767 244.556 157.206 243.899C157.936 242.803 161.151 240.099 161.443 243.607C161.662 245.579 158.959 247.479 157.571 248.502Z" fill="#263238"/>
<path d="M145.737 252.521C148.586 252.959 151.508 252.156 154.357 251.717C154.649 251.644 154.722 251.352 154.576 251.133C154.649 251.133 154.649 251.06 154.576 250.986C152.458 249.087 149.463 247.479 146.614 246.968C144.86 246.675 142.45 247.114 142.231 249.233C142.011 251.279 144.057 252.302 145.737 252.521ZM143.765 250.694C141.573 247.918 145.737 247.625 147.052 247.918C147.856 248.137 148.659 248.429 149.463 248.721C151.07 249.306 152.604 250.183 154.138 250.986C152.75 251.133 151.362 251.352 149.974 251.571C148.294 251.717 145.007 252.229 143.765 250.694Z" fill="#263238"/>
<path d="M71.3711 97.5449C71.3711 97.5449 109.285 161.99 110.307 166.52C111.841 173.462 120.096 242.145 120.096 242.145L159.544 241.415C159.544 241.415 152.75 180.842 146.322 160.894C141.719 146.5 108.262 98.8601 108.262 98.8601L71.3711 97.5449Z" fill="#37474F"/>
<path d="M155.964 235.423C150.266 235.35 130.25 235.131 122.726 235.862C122.653 235.862 122.653 235.935 122.726 235.935C125.356 236.3 150.34 235.715 155.964 235.569C156.037 235.569 156.037 235.423 155.964 235.423Z" fill="#263238"/>
<path d="M77.8726 103.463C80.3563 107.336 82.9862 111.209 85.543 115.008C88.0997 118.881 90.5835 122.753 93.1403 126.626C98.1078 134.371 103.002 142.262 107.751 150.153C110.015 153.88 112.134 157.606 113.668 161.625C115.202 165.644 116.224 169.809 117.028 173.973C117.832 178.211 118.343 182.449 118.781 186.76C119.293 191.29 119.804 195.894 120.315 200.424C121.338 209.703 122.361 219.056 123.457 228.336C123.603 229.505 123.676 230.601 123.822 231.77C123.822 231.916 123.53 231.989 123.53 231.77C122.361 222.49 121.411 213.211 120.388 204.004C119.877 199.401 119.366 194.798 118.781 190.194C118.27 185.883 117.832 181.645 117.174 177.335C116.517 173.17 115.64 169.005 114.398 164.913C113.083 160.675 111.184 156.73 108.919 152.857C104.317 144.966 99.4957 137.221 94.6744 129.475C89.7799 121.657 84.8855 113.912 79.7719 106.24C79.1145 105.29 78.53 104.34 77.8726 103.39C77.6534 103.463 77.7995 103.39 77.8726 103.463Z" fill="#263238"/>
<path d="M83.7897 270.057C81.9634 269.911 35.576 251.133 34.261 249.379C34.188 249.306 34.188 249.233 34.188 249.014C34.188 247.406 37.4022 241.853 40.1051 234.473C40.2512 234.035 41.4931 231.843 43.1002 228.92C47.7025 220.883 55.7381 207.073 55.7381 207.073L86.0543 219.129L71.5171 240.903L69.2525 246.164C69.2525 246.164 83.4975 260.851 84.6663 262.97C85.9813 265.015 85.616 270.13 83.7897 270.057Z" fill="#EB9481"/>
<path d="M83.7897 270.057C81.9634 269.911 35.576 251.133 34.261 249.379C34.188 249.306 34.188 249.233 34.188 249.014C34.188 247.406 37.4022 241.853 40.1051 234.473C40.2512 234.035 41.4931 231.843 43.1002 228.92L71.5902 240.83L69.3256 246.091C69.3256 246.091 83.5706 260.778 84.7394 262.896C85.9813 265.015 85.616 270.13 83.7897 270.057Z" fill="white"/>
<path d="M83.7898 270.057C81.9635 269.984 35.576 251.133 34.2611 249.379C33.7497 248.721 35.8682 242.365 40.1052 234.546L69.3256 246.164C69.3256 246.164 83.5706 260.851 84.7394 262.97C85.9813 265.015 85.616 270.13 83.7898 270.057Z" fill="#A6A6A6"/>
<path d="M83.8627 267.938C76.3385 264.723 45.73 252.375 38.0597 249.744C37.9866 249.744 37.9866 249.744 38.0597 249.817C45.4378 253.179 76.1924 265.235 83.8627 268.084C84.0088 268.157 84.0088 268.011 83.8627 267.938Z" fill="#263238"/>
<path d="M82.548 260.12C80.7947 259.316 78.6762 259.462 77.2883 260.12C75.9003 260.778 74.5123 261.874 74.001 263.481C74.001 263.554 74.074 263.554 74.074 263.481C75.6812 260.704 79.4798 259.17 82.548 260.12C82.621 260.12 82.548 260.193 82.548 260.12Z" fill="#263238"/>
<path d="M72.0284 247.991C69.0333 246.749 65.0155 246.383 62.1665 248.137C62.0204 248.21 62.1665 248.356 62.2396 248.356C65.5269 248.064 68.595 248.064 71.8823 248.429C72.1745 248.429 72.2476 248.137 72.0284 247.991Z" fill="#263238"/>
<path d="M74.0011 249.89C71.006 248.648 66.9882 248.283 64.1392 250.037C63.9931 250.11 64.1392 250.256 64.2122 250.256C67.4995 249.964 70.5677 249.964 73.855 250.329C74.1472 250.329 74.2202 249.964 74.0011 249.89Z" fill="#263238"/>
<path d="M75.9732 251.717C72.9782 250.475 68.9603 250.11 66.1113 251.863C65.9652 251.936 66.1113 252.082 66.1844 252.082C69.4717 251.79 72.5398 251.79 75.8271 252.156C76.1194 252.156 76.1924 251.79 75.9732 251.717Z" fill="#263238"/>
<path d="M77.9454 253.617C74.9503 252.375 70.9325 252.01 68.0835 253.763C67.9374 253.836 68.0835 253.982 68.1566 253.982C71.4439 253.69 74.512 253.69 77.7993 254.055C78.0915 253.982 78.1646 253.69 77.9454 253.617Z" fill="#263238"/>
<path d="M42.8808 243.314C39.4474 241.926 37.329 247.26 40.7624 248.648C44.1227 250.037 46.2412 244.703 42.8808 243.314Z" fill="#263238"/>
<path d="M78.5298 241.196C77.5071 239.296 75.0964 239.807 73.5624 240.684C71.1517 242.219 68.8871 244.776 67.7183 247.333C67.7183 247.406 67.7183 247.406 67.7913 247.479C67.7913 247.699 67.9374 247.991 68.2296 247.918C71.0056 247.26 74.0007 246.968 76.4844 245.507C77.9454 244.703 79.5526 243.022 78.5298 241.196ZM72.2474 246.164C70.8595 246.53 69.5445 246.749 68.2296 247.187C69.3984 245.872 70.4942 244.557 71.7361 243.388C72.3205 242.803 72.9779 242.292 73.6354 241.78C74.7312 241.049 78.6759 239.661 77.6532 243.095C77.0688 244.995 73.8546 245.799 72.2474 246.164Z" fill="#263238"/>
<path d="M59.683 245.507C62.1668 246.968 65.2349 247.333 67.9378 247.918C68.23 247.991 68.3761 247.699 68.3761 247.479C68.4492 247.479 68.4492 247.406 68.4492 247.333C67.2073 244.776 65.0158 242.219 62.6051 240.611C61.144 239.661 58.6603 239.15 57.6376 241.049C56.761 242.949 58.2951 244.63 59.683 245.507ZM58.5873 243.022C57.5645 239.588 61.5824 240.976 62.6051 241.707C63.2625 242.219 63.92 242.73 64.5044 243.315C65.7463 244.484 66.842 245.872 68.0109 247.114C66.6959 246.749 65.308 246.456 63.993 246.091C62.3859 245.726 59.0986 244.922 58.5873 243.022Z" fill="#263238"/>
<path d="M74.001 239.588L40.0322 225.851C40.0322 225.851 82.1097 163.963 82.4749 159.287C82.7672 155.195 64.2852 119.684 63.5547 109.309C62.7511 98.1295 68.1569 89.5076 74.0741 84.1006L109.139 99.0063C109.139 99.0063 105.413 104.925 99.642 108.213C99.642 108.213 117.613 149.277 116.59 161.917C115.421 174.704 74.001 239.588 74.001 239.588Z" fill="#37474F"/>
<path d="M75.4619 233.158C70.5674 231.039 71.9554 231.55 67.061 229.505C64.6503 228.482 48.7982 221.906 46.3875 221.321C46.3145 221.321 46.3145 221.394 46.3145 221.394C48.4329 222.709 64.4311 228.993 66.8418 229.943C71.8093 231.916 70.4213 231.258 75.3888 233.158C75.5349 233.304 75.5349 233.158 75.4619 233.158Z" fill="#263238"/>
<path d="M105.267 107.555C101.614 108.359 98.0345 109.601 94.6011 110.989C94.455 111.062 94.5281 111.209 94.6742 111.209C98.2537 110.186 101.906 109.163 105.413 107.921C105.705 107.848 105.559 107.482 105.267 107.555Z" fill="#263238"/>
<path d="M101.103 106.094C100.737 106.678 100.445 107.336 100.226 107.994C100.007 108.505 99.7876 109.017 99.7876 109.601C99.7876 109.674 99.9337 109.747 100.007 109.674C100.445 109.309 100.664 108.724 100.883 108.213C101.176 107.628 101.468 107.044 101.76 106.459C101.906 106.021 101.322 105.729 101.103 106.094Z" fill="#263238"/>
<path d="M101.541 102.806C101.76 102.294 101.979 101.71 102.198 101.198C102.418 100.614 102.71 100.102 102.929 99.5178C102.929 99.4447 103.075 99.5178 103.075 99.5909C102.856 100.102 102.71 100.687 102.564 101.271C102.418 101.856 102.198 102.367 102.052 102.952C101.687 103.975 101.322 104.998 100.81 106.021C101.395 106.021 101.979 106.021 102.491 105.729C103.075 105.436 103.367 104.852 103.659 104.267C103.952 103.683 104.244 103.025 104.536 102.441C104.901 101.783 105.267 101.125 105.486 100.395C105.486 100.322 105.632 100.395 105.632 100.468C105.12 101.929 104.609 103.39 103.733 104.779C103.44 105.29 103.148 105.875 102.564 106.094C101.906 106.313 101.249 106.24 100.591 106.24C100.518 106.24 100.372 106.24 100.445 106.094C100.737 104.998 101.103 103.902 101.541 102.806Z" fill="#263238"/>
<path d="M100.007 109.674C101.249 112.305 102.345 114.935 103.514 117.565C104.683 120.123 105.705 122.753 106.728 125.384C108.846 130.645 110.673 136.051 112.353 141.458C113.156 144.162 113.887 146.865 114.617 149.569C115.275 152.272 115.932 155.049 116.225 157.899C116.517 160.748 116.298 163.525 115.494 166.228C114.691 169.005 113.668 171.416 112.426 173.973C111.695 175.581 111.403 175.362 111.768 174.558C112.791 172.293 115.567 165.425 115.348 159.652C115.275 156.876 114.691 154.099 114.033 151.396C113.376 148.619 112.645 145.916 111.842 143.139C110.307 137.805 108.408 132.544 106.509 127.283C105.413 124.361 104.317 121.438 103.221 118.515C102.126 115.593 101.03 112.889 99.7881 109.674C99.8611 109.601 100.007 109.601 100.007 109.674Z" fill="#263238"/>
<path d="M74.22 100.906C74.8044 100.687 75.681 101.052 76.2654 101.125C77.069 101.271 77.8726 101.344 78.6761 101.344C79.4797 101.344 80.2833 101.344 81.0868 101.271C81.8904 101.198 82.6939 101.125 83.3514 100.687C84.5202 99.9562 85.4699 98.7141 86.2734 97.6181C87.1501 96.3759 88.0267 95.0607 88.538 93.5994C88.538 93.5263 88.6841 93.5994 88.6841 93.6724C88.3919 94.4762 88.2458 95.2799 87.8806 96.0836C87.5884 96.8143 87.1501 97.545 86.7848 98.2026C85.9812 99.5178 85.1046 100.833 83.7897 101.637C82.4017 102.441 80.5755 102.367 78.9683 102.294C78.0917 102.221 77.1421 102.148 76.2654 101.929C75.608 101.783 74.5122 101.71 74.147 101.125C74.0739 101.125 74.147 100.979 74.22 100.906Z" fill="#263238"/>
<path d="M49.6746 219.421C55.2265 210.945 60.7053 202.47 66.1111 193.848C71.5169 185.226 76.7766 176.604 82.0362 167.836C83.2781 165.717 84.7391 163.671 85.5427 161.333C86.4193 158.848 85.9079 156.364 85.1044 153.953C83.6434 149.423 81.8171 145.039 79.9178 140.801C77.9454 136.49 75.8269 132.252 73.7815 127.941C71.736 123.703 69.5445 119.465 68.0104 115.008C66.5494 110.77 65.965 106.386 67.0608 101.929C68.2296 97.545 70.6403 93.6724 73.197 90.019C73.8545 89.0692 74.585 88.1193 75.2425 87.1694C75.3155 87.0964 75.3886 87.1694 75.3155 87.2425C72.4665 91.042 69.7636 95.0607 68.0835 99.5909C67.2799 101.783 66.7685 104.121 66.6955 106.532C66.6224 108.943 67.0608 111.282 67.7913 113.62C69.1792 118.077 71.2977 122.242 73.3431 126.407C75.3886 130.644 77.5071 134.882 79.5525 139.193C81.5249 143.504 83.4242 147.888 84.9583 152.419C85.6157 154.464 86.4193 156.51 86.3463 158.702C86.2732 161.04 85.1774 163.159 84.0086 165.205C78.895 173.9 73.6354 182.449 68.3026 190.925C62.9699 199.474 57.491 207.95 51.9392 216.352C51.2086 217.448 50.5512 218.471 49.8207 219.567C49.8207 219.714 49.6015 219.567 49.6746 219.421Z" fill="#263238"/>
<path d="M110.965 59.6961C114.106 66.6375 130.104 76.2093 137.555 77.2323C142.961 77.963 159.252 78.2552 164.877 77.3784C171.451 76.3555 166.411 58.6732 162.539 59.1116C151.873 60.3537 142.815 61.742 139.966 61.742C136.46 61.742 117.685 55.6774 115.421 54.8737C109.869 52.7547 109.138 55.7505 110.965 59.6961Z" fill="#EB9481"/>
<path d="M111.038 61.5228C115.056 67.4412 128.351 77.1592 128.351 77.1592L130.177 73.0674L136.314 59.5499C136.314 59.5499 124.114 55.6774 116.079 53.9968C114.983 53.7776 114.033 53.6315 113.23 53.5584C108.043 53.2662 107.605 56.4811 111.038 61.5228Z" fill="#E2242D"/>
<path d="M111.038 61.5228C115.056 67.4412 128.351 77.1592 128.351 77.1592L130.177 73.0674C125.21 67.2951 117.539 58.6001 113.156 53.5584C108.043 53.2662 107.604 56.4811 111.038 61.5228Z" fill="#263238"/>
<path d="M125.94 74.4557C126.963 71.9714 131.492 61.9612 132.588 59.8423C132.661 59.6961 132.807 59.6961 132.734 59.8423C129.885 67.3682 127.182 72.1176 126.086 74.4557C126.013 74.5288 125.94 74.5288 125.94 74.4557Z" fill="#263238"/>
<path d="M160.64 59.3308C167.141 58.454 175.177 56.9927 181.971 59.9154C183.286 60.4999 183.797 61.4498 183.797 61.4498C186.865 62.6919 187.23 64.5186 187.23 64.5186C189.714 66.5645 189.86 68.4642 189.86 68.4642C189.86 68.4642 193.44 69.9256 192.928 72.2637C192.344 74.8942 187.376 72.2637 183.797 72.4829C175.615 72.9944 164.073 75.9902 161.735 76.3555L160.64 59.3308Z" fill="#EB9481"/>
<path d="M174.739 67.0029C177.149 66.9298 179.56 66.7106 181.971 67.0029C184.6 67.2221 187.157 67.9527 189.714 68.5373C189.787 68.5373 189.86 68.4642 189.787 68.3911C185.331 66.4914 179.56 65.9799 174.812 66.8567C174.592 66.8567 174.592 67.0029 174.739 67.0029Z" fill="#263238"/>
<path d="M173.716 62.0342C176.054 62.0342 180.218 62.1803 187.157 64.5916C187.157 64.5916 187.23 64.5916 187.157 64.5185C182.847 62.3265 178.464 61.5958 173.716 61.8881C173.57 61.9611 173.497 62.0342 173.716 62.0342Z" fill="#263238"/>
<path d="M173.205 59.404C177.222 59.6232 179.706 60.2808 183.724 61.4499C183.724 61.4499 183.797 61.4499 183.724 61.3768C179.268 59.5502 177.441 59.3309 173.131 59.1848C173.058 59.2579 173.058 59.404 173.205 59.404Z" fill="#263238"/>
<path d="M173.862 73.7251C172.839 74.2366 173.058 74.748 175.031 75.2595C177.076 75.6979 185.331 75.8441 185.039 78.7667C184.747 81.6894 173.058 81.3241 169.771 80.3012C166.484 79.2782 161.589 76.5017 161.589 76.5017C163.854 75.9902 169.333 74.5288 173.862 73.7251Z" fill="#EB9481"/>
<path d="M119.658 70.8023C119.585 72.0445 119.512 73.2866 119.293 74.6018C119.293 74.5287 119.292 74.5287 119.366 74.4557C119.585 73.7981 119.877 73.1405 120.169 72.4829H120.242C120.096 73.1405 119.877 73.8711 119.585 74.5287C119.439 74.821 119.366 75.1864 119.219 75.4786C119.146 76.0632 119 76.5746 118.927 77.1592C118.708 78.1821 117.758 82.6392 117.466 83.3699C117.393 83.516 117.247 83.516 117.247 83.2968C117.32 82.4931 118.124 77.8168 118.27 76.7938C118.562 74.7479 119 72.7021 119.585 70.7292C119.585 70.7292 119.658 70.7292 119.658 70.8023Z" fill="#263238"/>
<path d="M112.061 103.975C110.088 104.998 107.604 106.532 96.2815 104.34C95.551 104.194 94.8935 104.048 94.163 103.829C83.5706 100.614 70.7867 88.1192 70.0562 87.2424C70.0562 87.2424 86.931 59.9152 108.481 51.2932C111.111 50.1972 115.567 52.2431 117.978 54.8005C118.854 55.6773 120.754 62.3995 120.023 67.8795C119.293 73.3596 113.96 103.025 112.061 103.975Z" fill="#E2242D"/>
<path d="M110.526 67.6604C110.6 68.2449 110.526 68.8295 110.453 69.414C110.38 69.9986 110.234 70.51 110.015 71.0946C109.942 70.51 110.015 69.9255 110.088 69.341C110.161 68.7564 110.307 68.1719 110.526 67.6604Z" fill="white"/>
<path d="M103.149 86.2925C103.222 86.877 103.149 87.4616 103.076 88.0461C103.002 88.6306 102.856 89.1421 102.637 89.7266C102.564 89.1421 102.637 88.5576 102.71 87.973C102.856 87.3885 102.929 86.804 103.149 86.2925Z" fill="white"/>
<path d="M90.6568 72.1904C90.7299 72.775 90.6569 73.3595 90.5838 73.944C90.5107 74.5286 90.3646 75.0401 90.1455 75.6246C90.0724 75.0401 90.1455 74.4555 90.2185 73.871C90.3646 73.2864 90.4377 72.775 90.6568 72.1904Z" fill="white"/>
<path d="M115.348 85.3425C115.421 85.9271 115.348 86.5116 115.275 87.0961C115.202 87.6807 115.056 88.1922 114.836 88.7767C114.763 88.1922 114.836 87.6076 114.909 87.0231C114.983 86.4385 115.129 85.854 115.348 85.3425Z" fill="white"/>
<path d="M99.2769 69.7793C99.8613 69.7062 100.446 69.7793 101.03 69.8524C101.614 69.9254 102.126 70.0716 102.71 70.2908C102.126 70.3638 101.541 70.2908 100.957 70.2177C100.373 70.1446 99.8613 69.9985 99.2769 69.7793Z" fill="white"/>
<path d="M85.105 83.2236C85.6894 83.1506 86.2738 83.2236 86.8582 83.2967C87.4426 83.3698 87.954 83.5159 88.5384 83.7351C87.954 83.8082 87.3696 83.7351 86.7852 83.662C86.2007 83.589 85.6163 83.4428 85.105 83.2236Z" fill="white"/>
<path d="M101.761 97.8371C102.345 97.7641 102.93 97.8372 103.514 97.9102C104.098 97.9833 104.61 98.1294 105.194 98.3486C104.61 98.4217 104.025 98.3486 103.441 98.2756C102.93 98.1294 102.345 98.0564 101.761 97.8371Z" fill="white"/>
<path d="M80.7217 92.5032C81.3061 92.4301 81.8905 92.5032 82.4749 92.5762C83.0593 92.6493 83.5707 92.7954 84.1551 93.0146C83.5707 93.0877 82.9863 93.0146 82.4019 92.9416C81.8174 92.8685 81.3061 92.7224 80.7217 92.5032Z" fill="white"/>
<path d="M110.38 54.5813C110.965 54.5082 111.549 54.5813 112.134 54.6544C112.718 54.7274 113.229 54.8736 113.814 55.0928C113.229 55.1658 112.645 55.0928 112.061 55.0197C111.549 54.8736 110.965 54.8005 110.38 54.5813Z" fill="white"/>
<path d="M106.29 59.1846C105.925 59.623 105.486 59.9883 105.048 60.3536C104.61 60.719 104.098 61.0113 103.587 61.2305C103.952 60.7921 104.39 60.4267 104.829 60.0614C105.267 59.7691 105.778 59.4768 106.29 59.1846Z" fill="white"/>
<path d="M83.7898 72.4827C83.4245 72.9211 82.9862 73.2864 82.5479 73.6517C82.1096 74.0171 81.5983 74.3094 81.0869 74.5286C81.4522 74.0901 81.8905 73.7248 82.3288 73.3595C82.7671 72.9941 83.2784 72.7019 83.7898 72.4827Z" fill="white"/>
<path d="M111.915 78.4744C111.55 78.9128 111.111 79.2781 110.673 79.6434C110.235 80.0088 109.723 80.301 109.212 80.5202C109.577 80.0818 110.015 79.7165 110.454 79.3512C110.892 78.9858 111.33 78.6936 111.915 78.4744Z" fill="white"/>
<path d="M93.7249 89.8728C93.3596 90.3112 92.9213 90.6765 92.483 91.0419C92.0447 91.4072 91.5333 91.6995 91.022 91.9187C91.3872 91.4803 91.8255 91.1149 92.2638 90.7496C92.7022 90.4573 93.1405 90.1651 93.7249 89.8728Z" fill="white"/>
<path d="M118.854 62.7649C118.489 63.2033 118.051 63.5686 117.612 63.934C117.174 64.2993 116.663 64.5916 116.151 64.8108C116.517 64.3724 116.955 64.007 117.393 63.6417C117.832 63.3494 118.343 63.0572 118.854 62.7649Z" fill="white"/>
<path d="M118.489 76.0631C118.051 75.6978 117.686 75.2594 117.32 74.821C116.955 74.3826 116.663 73.8711 116.444 73.3596C116.882 73.725 117.247 74.1634 117.613 74.6018C117.905 75.0402 118.27 75.5516 118.489 76.0631Z" fill="white"/>
<path d="M77.9458 85.1964C77.5075 84.8311 77.1423 84.3927 76.777 83.9543C76.4117 83.5159 76.1195 83.0044 75.9004 82.4929C76.3387 82.8583 76.704 83.2967 77.0692 83.7351C77.3614 84.1735 77.7267 84.6849 77.9458 85.1964Z" fill="white"/>
<path d="M113.521 96.0836C113.083 95.7183 112.718 95.2799 112.353 94.8415C111.987 94.4031 111.695 93.8916 111.476 93.3801C111.914 93.7455 112.28 94.1839 112.645 94.6223C113.01 95.0607 113.302 95.5721 113.521 96.0836Z" fill="white"/>
<path d="M95.6973 65.1029C95.259 64.7376 94.8937 64.2992 94.5285 63.8608C94.1632 63.4224 93.871 62.9109 93.6519 62.3994C94.0902 62.7648 94.4554 63.2032 94.8207 63.6416C95.1129 64.08 95.4781 64.5184 95.6973 65.1029Z" fill="white"/>
<path d="M95.9893 102.294C95.551 101.929 95.1857 101.491 94.8205 101.052C94.4552 100.614 94.163 100.102 93.9438 99.5908C94.3822 99.9562 94.7474 100.395 95.1127 100.833C95.4779 101.271 95.7701 101.783 95.9893 102.294Z" fill="white"/>
<path d="M99.0576 80.3741C98.6193 80.0088 98.2541 79.5704 97.8888 79.132C97.5236 78.6936 97.2314 78.1821 97.0122 77.6707C97.4505 78.036 97.8158 78.4744 98.181 78.9128C98.4732 79.3512 98.8385 79.7896 99.0576 80.3741Z" fill="white"/>
<path d="M114.033 62.1073C111.257 61.5958 108.7 55.8966 108.335 52.0971C108.335 51.8048 109.65 49.7589 111.111 47.1285C111.988 45.521 112.937 43.7674 113.668 42.0868C113.814 41.7215 114.69 42.8906 114.69 42.8906L116.663 44.3519L123.164 49.3205C123.164 49.3205 120.535 52.3893 119.293 55.3851C119.22 55.6043 119.147 55.8966 119.073 56.1158C119.073 56.1158 119.073 56.1888 119.073 56.2619C118.635 57.6502 116.663 62.6188 114.033 62.1073Z" fill="#EB9481"/>
<path d="M119.074 56.1157C119.074 56.1157 119.074 56.1887 119.074 56.2618C118.708 56.1887 118.343 56.0426 117.978 55.8234C110.892 52.5354 114.033 43.0366 114.033 43.0366L116.809 44.4249L123.311 49.3935C123.311 49.3935 120.681 52.4623 119.439 55.4581C119.22 55.6042 119.074 55.8965 119.074 56.1157Z" fill="#263238"/>
<path d="M130.616 29.0808C130.616 29.0808 133.83 31.1267 133.903 34.7801C133.903 38.4334 132.442 42.0137 132.15 42.1599C131.785 42.306 130.616 29.0808 130.616 29.0808Z" fill="#263238"/>
<path d="M114.545 30.9807C112.572 34.8532 112.718 46.9093 115.129 50.0512C118.635 54.5814 125.429 56.1158 129.52 51.6587C133.465 47.3477 133.1 31.5652 130.251 28.6425C126.16 24.3315 117.467 25.3545 114.545 30.9807Z" fill="#EB9481"/>
<path d="M124.845 40.6987L124.772 40.7718C124.845 41.5755 124.699 42.5254 123.968 42.8177V42.8908C124.918 42.7446 125.064 41.5025 124.845 40.6987Z" fill="#263238"/>
<path d="M124.114 39.8218C122.799 39.7487 122.726 42.3792 123.968 42.4522C125.21 42.5984 125.21 39.8949 124.114 39.8218Z" fill="#263238"/>
<path d="M129.374 40.6987L129.447 40.7718C129.374 41.5755 129.52 42.5254 130.25 42.8177V42.8908C129.301 42.6715 129.228 41.4294 129.374 40.6987Z" fill="#263238"/>
<path d="M130.104 39.8218C131.419 39.7487 131.492 42.3792 130.25 42.4522C129.082 42.5253 129.009 39.8949 130.104 39.8218Z" fill="#263238"/>
<path d="M123.311 37.8489C123.676 37.7759 123.968 37.6297 124.333 37.4836C124.698 37.3375 125.064 37.2644 125.356 36.8991C125.502 36.6799 125.429 36.3876 125.283 36.2414C124.918 35.8761 124.333 35.9492 123.895 36.0953C123.384 36.2415 123.018 36.5337 122.726 36.9721C122.361 37.4105 122.799 37.922 123.311 37.8489Z" fill="#263238"/>
<path d="M131.054 39.0179C130.689 38.9449 130.323 38.7987 130.031 38.7257C129.593 38.5795 129.301 38.5795 129.009 38.2142C128.862 38.0681 128.862 37.7027 129.082 37.5566C129.447 37.1913 129.958 37.1913 130.47 37.3374C130.981 37.4835 131.346 37.7027 131.711 38.1411C132.004 38.5065 131.565 39.091 131.054 39.0179Z" fill="#263238"/>
<path d="M123.018 48.5168C123.237 48.736 123.383 48.9552 123.676 49.0283C123.968 49.0283 124.333 48.9552 124.552 48.8091C124.552 48.8091 124.625 48.8091 124.552 48.8822C124.333 49.1744 123.895 49.3936 123.53 49.3206C123.164 49.2475 122.945 48.9552 122.872 48.5899C122.872 48.5168 122.945 48.4438 123.018 48.5168Z" fill="#263238"/>
<path d="M127.767 45.0095C127.767 45.0095 127.767 46.2516 127.767 46.8362C127.767 46.9092 126.159 46.5439 124.406 46.9823C124.114 47.0554 124.187 46.8362 124.479 46.69C125.064 46.3978 125.867 46.1786 127.328 46.3247C127.401 46.1786 127.255 44.4249 127.328 44.4249C127.62 44.4249 128.205 44.7172 128.57 44.8633C128.57 42.306 128.132 39.7486 128.205 37.1913C128.205 37.1182 128.351 37.1182 128.351 37.1913C128.935 39.8217 129.008 42.8175 129.082 45.4479C129.155 45.6671 127.986 45.0825 127.767 45.0095Z" fill="#263238"/>
<path d="M126.16 46.3246C126.16 46.3246 125.575 47.786 124.626 48.1513C123.53 48.5897 123.164 47.5668 124.26 46.69C124.845 46.2516 126.16 46.3246 126.16 46.3246Z" fill="#263238"/>
<path d="M124.991 47.9321C124.844 48.0052 124.771 48.0783 124.625 48.1513C123.603 48.5897 123.237 47.7129 124.041 46.9092C124.552 46.9822 125.137 47.2015 124.991 47.9321Z" fill="#FF99BA"/>
<path d="M114.033 41.3561C115.348 41.7945 116.882 37.7758 117.32 36.1683C117.686 34.78 118.124 30.4691 118.197 30.1768C118.27 29.8845 124.041 33.9763 127.402 33.0264C130.762 32.0765 133.026 29.0077 133.1 27.6194C133.173 26.2312 128.936 22.6509 125.356 22.4317C121.704 22.2125 116.809 26.8157 116.809 26.8157C116.809 26.8157 118.489 24.8429 118.416 24.6967C118.343 24.5506 116.006 25.5005 115.567 27.108C115.567 27.108 116.006 24.989 115.859 24.989C115.713 24.9159 113.887 26.7426 114.252 28.1309C114.252 28.1309 112.134 29.9576 111.988 31.9304C111.769 33.9763 112.426 40.8446 114.033 41.3561Z" fill="#263238"/>
<path d="M129.812 32.3688C128.789 32.8072 127.767 33.3917 126.598 33.5378C125.356 33.684 124.114 33.3917 122.945 32.9533C121.777 32.5149 120.754 31.8573 119.731 31.0536C118.854 30.3959 118.124 29.5191 117.247 28.9346C117.028 28.7885 116.736 29.0807 116.882 29.2999C118.27 31.3458 120.681 33.0264 123.018 33.8301C125.502 34.5608 127.84 33.9762 129.812 32.3688Z" fill="#263238"/>
<path d="M115.421 40.9908C115.421 40.9908 113.376 36.7529 111.476 37.4836C109.577 38.1412 110.746 43.9866 112.645 45.0826C114.544 46.1786 115.567 44.425 115.567 44.425L115.421 40.9908Z" fill="#EB9481"/>
<path d="M111.841 39.1641C111.768 39.091 111.768 39.1641 111.841 39.1641C113.156 40.0409 113.668 41.4292 114.033 42.8905C113.668 42.306 113.156 41.9406 112.353 42.306C112.28 42.306 112.353 42.379 112.353 42.379C112.937 42.379 113.375 42.5252 113.668 43.0366C113.887 43.402 114.033 43.8404 114.179 44.2788C114.252 44.4249 114.471 44.3518 114.471 44.2057C114.763 42.379 113.741 39.6025 111.841 39.1641Z" fill="#263238"/>
<path d="M101.687 59.7691C100.226 68.0257 109.211 95.9374 114.982 101.125C123.529 108.87 139.381 113.985 145.079 115.593C147.563 116.323 154.503 98.714 151.946 97.5449C146.54 95.0606 129.739 89.7998 128.132 88.4846C126.524 87.1693 116.882 73.2135 112.572 65.1761C106.801 54.5082 102.418 55.6043 101.687 59.7691Z" fill="#EB9481"/>
<path d="M147.709 96.0835C147.709 96.0835 155.16 97.9833 159.982 99.4446C162.685 100.248 167.141 102.075 168.821 103.609C171.378 105.875 180.582 116.908 177.952 119.173C175.542 121.219 168.894 110.77 168.894 110.77C168.894 110.77 176.564 120.78 173.277 122.753C169.917 124.726 164 111.866 164 111.866C164 111.866 171.67 122.315 167.944 123.776C165.095 124.872 159.032 113.547 159.032 113.547C159.032 113.547 165.534 122.607 162.685 123.849C159.543 125.237 153.261 115.154 153.261 115.154C145.445 117.2 140.842 114.935 137.847 112.962C136.971 112.451 147.709 96.0835 147.709 96.0835Z" fill="#EB9481"/>
<path d="M166.41 107.19C167.36 108.359 168.31 109.455 169.186 110.697C170.063 111.939 170.793 113.181 171.524 114.496C173.277 117.638 173.935 119.903 173.862 119.83C172.62 116.615 169.698 112.231 168.821 110.989C168.018 109.674 167.214 108.432 166.41 107.19C166.41 107.117 166.337 107.19 166.41 107.19Z" fill="#263238"/>
<path d="M161.954 110.112C163.561 111.428 166.995 116.177 168.31 119.392C168.383 119.538 168.31 119.538 168.237 119.392C167.141 117.784 163.05 111.647 161.954 110.112Z" fill="#263238"/>
<path d="M157.644 111.939C159.543 113.766 161.078 116.323 162.319 119.246C162.392 119.392 162.246 119.392 162.173 119.246C160.639 116.761 159.47 114.862 157.498 112.012C157.571 112.012 157.644 111.939 157.644 111.939Z" fill="#263238"/>
<path d="M109.796 60.4267C103.148 51.001 99.1303 54.5082 100.445 64.7376C101.687 74.3095 105.047 85.708 105.047 85.708L121.849 77.5244C121.922 77.5244 114.106 66.4182 109.796 60.4267Z" fill="#E2242D"/>
<path d="M113.887 64.0801C114.106 64.5915 114.252 65.1761 114.325 65.7606C114.398 66.3452 114.471 66.9297 114.471 67.5142C114.252 67.0028 114.106 66.4182 114.033 65.8337C113.96 65.2492 113.887 64.6646 113.887 64.0801Z" fill="white"/>
<path d="M103.952 69.8524C104.463 69.6332 105.047 69.487 105.632 69.414C106.216 69.3409 106.801 69.2678 107.385 69.2678C106.874 69.487 106.289 69.6332 105.705 69.7062C105.12 69.8524 104.536 69.8524 103.952 69.8524Z" fill="white"/>
<path d="M104.39 55.1658C104.171 55.7503 103.879 56.1887 103.514 56.7002C103.148 57.1386 102.856 57.6501 102.345 58.0154C102.564 57.4309 102.856 56.9925 103.221 56.481C103.587 55.9695 103.952 55.5311 104.39 55.1658Z" fill="white"/>
<path d="M118.562 74.2363C118.343 74.8209 118.051 75.2593 117.685 75.7707C117.32 76.2091 117.028 76.7206 116.517 77.086C116.736 76.5014 117.028 76.063 117.393 75.5515C117.758 75.1131 118.124 74.6017 118.562 74.2363Z" fill="white"/>
<path d="M106.947 80.0088C106.363 79.7896 105.924 79.4973 105.413 79.132C104.975 78.7666 104.463 78.4744 104.098 77.9629C104.683 78.1821 105.121 78.4744 105.632 78.8397C106.071 79.205 106.582 79.4973 106.947 80.0088Z" fill="white"/>
<path d="M112.06 63.2031C112.937 64.4453 113.887 65.6143 114.836 66.8565C114.617 66.272 114.398 65.6143 114.252 65.0298C114.252 65.0298 114.252 64.9567 114.325 65.0298C114.544 65.5413 114.69 65.9797 114.909 66.4912C114.982 66.7104 115.055 66.9296 115.202 67.2218C115.202 67.2949 115.275 67.2949 115.275 67.368C116.005 68.3178 116.736 69.2677 117.393 70.2176C118.197 71.3867 119 72.5557 119.804 73.7248C120.607 74.967 121.411 76.3552 122.287 77.5243C122.361 77.5974 120.826 78.255 120.68 78.3281C120.534 78.4011 120.461 78.255 120.607 78.1819C120.753 78.1089 121.995 77.3782 121.995 77.3782C121.192 76.2091 120.242 75.1131 119.438 73.944C118.635 72.7749 117.758 71.6789 116.955 70.5099C115.128 68.0986 113.667 65.6143 112.06 63.2031Z" fill="#263238"/>
<path d="M100.957 71.4599C101.249 71.9714 101.468 72.4828 101.687 72.9943C101.76 73.2135 101.906 73.4327 101.979 73.6519C101.614 71.8252 101.249 69.9986 100.811 68.1719C101.614 71.0946 102.345 74.0903 103.075 77.0861C103.733 79.9357 104.609 82.7853 104.974 85.708C105.194 85.635 106.509 85.1235 106.582 85.1966C106.655 85.2696 104.901 86.0734 104.828 86.0734C103.879 83.2237 103.294 80.0088 102.637 77.1592C102.491 76.3554 102.272 75.5517 102.125 74.6749C101.906 74.1634 101.687 73.725 101.468 73.2135C101.249 72.5559 101.103 72.0444 100.957 71.4599C100.884 71.4599 100.884 71.4599 100.957 71.4599Z" fill="#263238"/>
<path d="M105.413 82.8582C107.75 81.543 117.539 76.5014 119.731 75.5515C119.877 75.4784 119.95 75.5515 119.804 75.6246C112.864 79.7163 107.823 81.7622 105.486 82.9313C105.413 83.0044 105.34 82.9313 105.413 82.8582Z" fill="#263238"/>
<path d="M373.072 274.953H150.485L182.701 92.4304H405.288L373.072 274.953Z" fill="#E2242D"/>
<path d="M258.82 73.5059H185.988L182.701 92.4303H260.646L258.82 73.5059Z" fill="#E2242D"/>
<g opacity="0.1">
<path d="M373.072 274.953H150.485L182.701 92.4304H405.288L373.072 274.953Z" fill="#4D4D4D"/>
<path d="M258.82 73.5059H185.988L182.701 92.4303H260.646L258.82 73.5059Z" fill="#4D4D4D"/>
</g>
<path d="M178.172 81.178C177.88 80.082 177.807 79.059 177.807 77.963C177.807 76.867 177.88 75.8441 178.172 74.748C178.464 75.8441 178.537 76.867 178.537 77.963C178.537 79.059 178.464 80.155 178.172 81.178Z" fill="#263238"/>
<path d="M171.67 83.0777C170.867 82.274 170.283 81.3972 169.771 80.5203C169.26 79.5705 168.748 78.6206 168.529 77.5977C169.333 78.4014 169.917 79.2782 170.429 80.155C170.94 81.1049 171.378 82.0548 171.67 83.0777Z" fill="#263238"/>
<path d="M166.995 87.9732C165.899 87.6809 164.95 87.2425 164.073 86.731C163.196 86.2196 162.247 85.635 161.516 84.8313C162.612 85.1236 163.562 85.562 164.438 86.0734C165.388 86.5849 166.264 87.1695 166.995 87.9732Z" fill="#263238"/>
<path d="M165.388 94.4762C164.292 94.7684 163.269 94.8415 162.174 94.8415C161.078 94.8415 160.055 94.7684 158.959 94.4762C160.055 94.1839 161.078 94.1108 162.174 94.1108C163.269 94.1108 164.365 94.1839 165.388 94.4762Z" fill="#263238"/>
<path d="M167.287 100.979C166.484 101.783 165.607 102.368 164.731 102.879C163.781 103.39 162.831 103.902 161.809 104.121C162.612 103.317 163.489 102.733 164.365 102.221C165.242 101.71 166.192 101.272 167.287 100.979Z" fill="#263238"/>
<path d="M172.108 105.656C171.816 106.752 171.378 107.701 170.867 108.578C170.355 109.455 169.771 110.405 168.967 111.136C169.259 110.04 169.698 109.09 170.209 108.213C170.794 107.263 171.378 106.386 172.108 105.656Z" fill="#263238"/>
<path d="M178.683 107.263C178.975 108.359 179.048 109.382 179.048 110.478C179.048 111.574 178.975 112.597 178.683 113.693C178.391 112.597 178.318 111.574 178.318 110.478C178.318 109.382 178.391 108.286 178.683 107.263Z" fill="#263238"/>
<path d="M185.112 105.363C185.915 106.167 186.5 107.044 187.011 107.921C187.523 108.871 188.034 109.82 188.253 110.843C187.449 110.04 186.865 109.163 186.354 108.286C185.915 107.409 185.404 106.459 185.112 105.363Z" fill="#263238"/>
<path d="M189.787 100.541C190.883 100.833 191.833 101.271 192.709 101.783C193.586 102.294 194.535 102.879 195.266 103.683C194.17 103.39 193.221 102.952 192.344 102.441C191.467 101.856 190.591 101.271 189.787 100.541Z" fill="#263238"/>
<path d="M191.394 93.9647C192.49 93.6724 193.513 93.5994 194.608 93.5994C195.704 93.5994 196.727 93.6724 197.823 93.9647C196.727 94.257 195.704 94.33 194.608 94.33C193.513 94.33 192.49 94.257 191.394 93.9647Z" fill="#263238"/>
<path d="M189.568 87.5347C190.371 86.731 191.248 86.1464 192.125 85.635C193.074 85.1235 194.024 84.612 195.047 84.3928C194.243 85.1966 193.367 85.7811 192.49 86.2926C191.54 86.731 190.591 87.2425 189.568 87.5347Z" fill="#263238"/>
<path d="M184.673 82.8585C184.966 81.7625 185.404 80.8126 185.915 79.9358C186.427 79.059 187.011 78.1091 187.815 77.3784C187.522 78.4744 187.084 79.4243 186.573 80.3011C186.061 81.1779 185.477 82.0547 184.673 82.8585Z" fill="#263238"/>
<path d="M372.78 274.952H149.682L118.051 99.0063H341.076L372.78 274.952Z" fill="#E2242D"/>
<path d="M195.339 206.562C200.463 206.562 204.617 202.407 204.617 197.282C204.617 192.157 200.463 188.002 195.339 188.002C190.215 188.002 186.062 192.157 186.062 197.282C186.062 202.407 190.215 206.562 195.339 206.562Z" fill="#263238"/>
<path d="M268.61 206.562C273.733 206.562 277.887 202.407 277.887 197.282C277.887 192.157 273.733 188.002 268.61 188.002C263.486 188.002 259.332 192.157 259.332 197.282C259.332 202.407 263.486 206.562 268.61 206.562Z" fill="#263238"/>
<path d="M245.306 208.096L244.795 207.146C244.722 207.073 239.973 198.232 230.331 198.232C221.564 198.232 219.373 206.562 219.3 206.927L219.008 208.023L216.889 207.511L217.108 206.415C217.108 206.342 219.738 196.04 230.258 196.04C241.215 196.04 246.475 205.758 246.694 206.123L247.205 207.073L245.306 208.096Z" fill="#263238"/>
<path d="M357.951 196.259C358.462 196.186 358.9 196.04 359.339 195.894" stroke="#263238" stroke-miterlimit="10"/>
<path d="M362.188 195.09C373.365 191.29 382.715 182.522 383.592 172.22C385.564 149.569 357.951 137.074 360.8 110.916C363.503 85.9272 389.728 84.1736 400.174 87.6077C411.789 91.4072 407.772 102.587 397.325 101.125C379.136 98.6409 367.667 78.8396 376.36 56.408C382.788 39.6025 398.932 33.3187 405.434 31.4189" stroke="#263238" stroke-miterlimit="10" stroke-dasharray="4 4"/>
<path d="M406.822 30.9806C407.698 30.7614 408.21 30.6152 408.21 30.6152" stroke="#263238" stroke-miterlimit="10"/>
<path d="M419.825 26.5964C417.926 20.8241 405.507 22.87 407.918 30.469C410.328 37.9949 421.724 32.3688 419.825 26.5964Z" fill="#263238"/>
<path d="M401.124 24.2583C401.197 21.701 404.703 19.8012 409.744 20.678C414.711 21.5549 419.387 24.916 419.387 24.916C419.387 24.916 414.492 27.9117 409.452 28.4963C404.411 29.0077 401.051 26.8157 401.124 24.2583Z" fill="#EBEBEB"/>
<path d="M419.387 24.9891C416.83 24.9891 414.2 24.916 411.643 24.8429C409.087 24.6968 406.457 24.6237 403.9 24.4045C406.457 24.4045 409.087 24.4776 411.643 24.5507C414.273 24.6237 416.83 24.7699 419.387 24.9891Z" fill="#263238"/>
<path d="M406.165 22.0664C406.895 22.4317 407.626 22.7971 408.283 23.2355C408.941 23.6739 409.671 24.1123 410.255 24.6238C409.525 24.2584 408.794 23.8931 408.137 23.4547C407.479 23.0163 406.749 22.5779 406.165 22.0664Z" fill="#263238"/>
<path d="M412.885 24.6968C412.228 25.2813 411.497 25.7197 410.84 26.1581C410.109 26.5965 409.379 27.0349 408.648 27.4003C409.306 26.8157 410.036 26.3773 410.694 25.9389C411.424 25.5736 412.155 25.0621 412.885 24.6968Z" fill="#263238"/>
<path d="M413.689 23.3086C414.054 23.4547 414.419 23.747 414.712 23.9662C415.004 24.2585 415.296 24.4777 415.588 24.843C415.223 24.6969 414.858 24.4046 414.566 24.1854C414.2 23.8931 413.908 23.6739 413.689 23.3086Z" fill="#263238"/>
<path d="M405.872 39.3102C407.406 41.283 411.424 40.8446 414.931 37.1913C418.437 33.5379 420.263 28.0579 420.263 28.0579C420.263 28.0579 414.492 28.4963 410.109 30.9806C405.726 33.5379 404.338 37.3374 405.872 39.3102Z" fill="#EBEBEB"/>
<path d="M420.337 28.0579C418.218 29.5923 416.173 31.1267 414.127 32.7342C412.082 34.3417 410.036 35.9491 408.064 37.6297C410.182 36.1683 412.228 34.5609 414.273 32.9534C416.319 31.3459 418.364 29.7384 420.337 28.0579Z" fill="#263238"/>
<path d="M411.278 38.2143C411.717 37.4836 412.009 36.7529 412.301 36.0222C412.593 35.2916 412.885 34.4878 413.105 33.6841C412.666 34.4148 412.374 35.1454 412.082 35.8761C411.717 36.6798 411.424 37.4105 411.278 38.2143Z" fill="#263238"/>
<path d="M415.15 32.0767C414.273 32.0036 413.47 32.0767 412.593 32.0767C411.716 32.1497 410.913 32.2228 410.036 32.3689C410.913 32.442 411.716 32.3689 412.593 32.3689C413.47 32.2959 414.346 32.2228 415.15 32.0767Z" fill="#263238"/>
<path d="M416.611 32.8072C416.83 32.4419 416.976 32.0765 417.049 31.6381C417.122 31.2728 417.268 30.8344 417.268 30.396C417.049 30.7613 416.903 31.1267 416.83 31.5651C416.684 32.0035 416.611 32.3688 416.611 32.8072Z" fill="#263238"/>
<path d="M419.825 26.5964C418.656 26.9617 417.414 26.3041 417.049 25.2081C416.683 24.039 417.341 22.7969 418.437 22.4315C419.605 22.0662 420.847 22.7238 421.213 23.8198C421.578 24.9889 420.993 26.2311 419.825 26.5964Z" fill="#455A64"/>
<path d="M421.14 30.7614C419.971 31.1268 418.729 30.4692 418.364 29.3731C417.998 28.2041 418.656 26.9619 419.752 26.5966C420.92 26.2313 422.162 26.8889 422.528 27.9849C422.966 29.1539 422.308 30.3961 421.14 30.7614Z" fill="#455A64"/>
<path d="M181.678 28.9347C180.655 38.9449 171.67 46.1786 161.662 45.1557C157.644 44.7173 154.065 43.0367 151.216 40.4794L142.084 41.7946L146.614 33.9033C145.518 31.1998 145.007 28.204 145.372 25.1352C146.394 15.125 155.38 7.89133 165.388 8.91427C175.469 9.93721 182.701 18.9245 181.678 28.9347Z" fill="white"/>
<path d="M181.678 28.9346C181.313 32.2957 180.071 35.5107 178.026 38.1411C177.514 38.7987 176.93 39.3832 176.346 40.0408C175.688 40.6254 175.104 41.2099 174.446 41.6483C173.131 42.6713 171.597 43.475 170.063 44.0596C168.529 44.7172 166.849 45.0094 165.169 45.2286C164.292 45.3017 163.489 45.3748 162.612 45.3017C161.735 45.3017 160.932 45.1556 160.128 45.0094C156.768 44.4249 153.627 42.8174 151.143 40.5523L151.362 40.6254L142.231 42.0137L141.573 42.0867L141.938 41.5022L146.468 33.6109V33.9032C144.276 28.7154 144.787 22.5047 147.563 17.6822C148.951 15.271 150.924 13.1521 153.261 11.6177C155.599 10.0832 158.302 9.0603 161.005 8.69496C163.781 8.32963 166.63 8.54883 169.26 9.42564C171.889 10.3024 174.3 11.8369 176.273 13.7366C180.217 17.6822 182.263 23.4546 181.678 28.9346ZM181.678 28.9346C182.263 23.4546 180.144 17.7553 176.126 13.9558C174.154 12.0561 171.743 10.6678 169.114 9.79097C166.484 8.98723 163.708 8.76803 161.005 9.20644C158.302 9.64484 155.745 10.5947 153.481 12.2022C151.289 13.7366 149.39 15.7825 148.002 18.1206C146.614 20.4588 145.883 23.1623 145.664 25.7927C145.518 28.4962 145.956 31.1997 146.979 33.7571L147.052 33.9032L146.979 34.0493L142.45 41.9406L142.158 41.4291L151.216 40.187H151.362L151.435 40.26C153.846 42.5251 156.914 44.1326 160.128 44.7172C160.932 44.8633 161.735 45.0094 162.612 45.0094C163.416 45.0825 164.292 45.0094 165.096 45.0094C166.776 44.8633 168.383 44.571 169.99 43.9134C171.524 43.3289 173.058 42.5982 174.373 41.5753C175.104 41.1369 175.688 40.4793 176.273 39.9678C176.857 39.3832 177.441 38.7987 177.953 38.068C179.998 35.5107 181.24 32.2226 181.678 28.9346Z" fill="#263238"/>
<path d="M154.649 35.5107C154.649 34.4147 155.38 33.611 156.403 33.611C157.498 33.611 158.156 34.4147 158.156 35.5107C158.156 36.5337 157.425 37.4105 156.403 37.4105C155.38 37.4105 154.649 36.6067 154.649 35.5107ZM155.453 31.1998L155.015 16.7324H157.937L157.498 31.1998H155.453Z" fill="#E2242D"/>
<path d="M161.589 35.5107C161.589 34.4147 162.32 33.611 163.343 33.611C164.438 33.611 165.096 34.4147 165.096 35.5107C165.096 36.5337 164.365 37.4105 163.343 37.4105C162.32 37.4105 161.589 36.6067 161.589 35.5107ZM162.393 31.1998L161.955 16.7324H164.877L164.438 31.1998H162.393Z" fill="#E2242D"/>
<path d="M168.529 35.5107C168.529 34.4147 169.26 33.611 170.283 33.611C171.378 33.611 172.036 34.4147 172.036 35.5107C172.036 36.5337 171.305 37.4105 170.283 37.4105C169.26 37.4105 168.529 36.6067 168.529 35.5107ZM169.333 31.1998L168.895 16.7324H171.817L171.378 31.1998H169.333Z" fill="#E2242D"/>
</g>
<defs>
<clipPath id="clip0_1717_2158">
<rect width="447" height="293" fill="white"/>
</clipPath>
</defs>
</svg>
