<svg xmlns="http://www.w3.org/2000/svg" width="205" height="42" viewBox="0 0 205 42" fill="none">
<rect x="0.5" y="0.5" width="204" height="41" rx="7.5" fill="white"/>
<path d="M22.022 21.474C22.022 18.09 24.218 15.768 27.17 15.768C29.78 15.768 31.382 17.298 31.796 19.512H29.51C29.132 18.504 28.448 17.82 27.17 17.82C25.406 17.82 24.362 19.368 24.362 21.474C24.362 23.562 25.406 25.128 27.17 25.128C28.448 25.128 29.132 24.444 29.51 23.418H31.796C31.382 25.65 29.78 27.18 27.17 27.18C24.218 27.18 22.022 24.858 22.022 21.474ZM33.2474 27V15.3H35.4794V19.692C35.9114 19.188 36.7034 18.774 37.6394 18.774C39.4574 18.774 40.4834 19.962 40.4834 21.744V27H38.2514V22.212C38.2514 21.366 37.8194 20.79 36.9374 20.79C36.2534 20.79 35.6594 21.204 35.4794 21.906V27H33.2474ZM47.2313 24.372H49.3013C49.0133 26.082 47.7533 27.18 45.7373 27.18C43.3973 27.18 41.8313 25.47 41.8313 22.986C41.8313 20.556 43.4513 18.774 45.7013 18.774C48.0593 18.774 49.3553 20.412 49.3553 22.77V23.454H43.9913C44.0633 24.66 44.7473 25.38 45.7373 25.38C46.4933 25.38 47.0513 25.056 47.2313 24.372ZM45.7193 20.592C44.8553 20.592 44.2433 21.114 44.0453 22.104H47.1593C47.1413 21.258 46.6373 20.592 45.7193 20.592ZM50.3391 22.986C50.3391 20.484 51.9231 18.774 54.2091 18.774C56.2251 18.774 57.5031 19.962 57.7371 21.672H55.5411C55.4151 21.06 54.9291 20.682 54.2091 20.682C53.1831 20.682 52.5531 21.618 52.5531 22.986C52.5531 24.336 53.1831 25.272 54.2091 25.272C54.9291 25.272 55.4151 24.894 55.5411 24.282H57.7371C57.5031 26.01 56.2251 27.18 54.2091 27.18C51.9231 27.18 50.3391 25.47 50.3391 22.986ZM64.3428 27L61.9848 23.76L61.3368 24.462V27H59.1048V15.3H61.3368V21.942L64.0908 18.954H66.8628L63.6048 22.374L66.9888 27H64.3428ZM79.2817 22.986C79.2817 25.452 77.6797 27.18 75.3397 27.18C72.9997 27.18 71.3977 25.452 71.3977 22.986C71.3977 20.502 72.9997 18.774 75.3397 18.774C77.6797 18.774 79.2817 20.502 79.2817 22.986ZM77.0677 22.986C77.0677 21.636 76.4557 20.664 75.3397 20.664C74.2237 20.664 73.6117 21.636 73.6117 22.986C73.6117 24.318 74.2237 25.29 75.3397 25.29C76.4557 25.29 77.0677 24.318 77.0677 22.986ZM87.8363 18.954V27H85.6043V26.262C85.1543 26.766 84.3803 27.18 83.4443 27.18C81.6443 27.18 80.6183 25.992 80.6183 24.21V18.954H82.8503V23.76C82.8503 24.606 83.2643 25.182 84.1463 25.182C84.8303 25.182 85.4243 24.768 85.5863 24.066V18.954H87.8363ZM90.2471 24.57V20.754H89.0231V18.954H90.2471V16.776H92.4611V18.954H94.2251V20.754H92.4611V24.282C92.4611 24.912 92.8031 25.2 93.3791 25.2C93.7211 25.2 94.0991 25.092 94.3511 24.93V26.91C94.0451 27.072 93.5051 27.162 92.9111 27.162C91.2731 27.162 90.2471 26.352 90.2471 24.57ZM105.739 18.954L107.071 24.084L108.511 18.954H110.671L108.223 27H106.171L104.857 22.068L103.543 27H101.491L99.0426 18.954H101.275L102.715 24.084L104.029 18.954H105.739ZM114.106 18.954V27H111.874V18.954H114.106ZM114.304 16.632C114.304 17.388 113.692 17.91 112.99 17.91C112.27 17.91 111.658 17.388 111.658 16.632C111.658 15.894 112.27 15.354 112.99 15.354C113.692 15.354 114.304 15.894 114.304 16.632ZM116.544 24.57V20.754H115.32V18.954H116.544V16.776H118.758V18.954H120.522V20.754H118.758V24.282C118.758 24.912 119.1 25.2 119.676 25.2C120.018 25.2 120.396 25.092 120.648 24.93V26.91C120.342 27.072 119.802 27.162 119.208 27.162C117.57 27.162 116.544 26.352 116.544 24.57ZM122.263 27V15.3H124.495V19.692C124.927 19.188 125.719 18.774 126.655 18.774C128.473 18.774 129.499 19.962 129.499 21.744V27H127.267V22.212C127.267 21.366 126.835 20.79 125.953 20.79C125.269 20.79 124.675 21.204 124.495 21.906V27H122.263Z" fill="#101820"/>
<g clip-path="url(#clip0_2539_4390)">
<path fill-rule="evenodd" clip-rule="evenodd" d="M138.647 25.635C138.054 25.635 137.751 25.3488 137.751 24.8784C137.751 24.0012 138.75 23.7063 140.573 23.5166C140.573 24.6854 139.765 25.635 138.642 25.635H138.647ZM139.431 19.0615C138.129 19.0615 136.631 19.6613 135.818 20.2962L136.56 21.8313C137.212 21.2468 138.266 20.7468 139.217 20.7468C140.121 20.7468 140.621 21.0429 140.621 21.6394C140.621 22.0396 140.29 22.2424 139.665 22.3225C137.329 22.6185 135.498 23.2501 135.498 25.0122C135.498 26.4091 136.513 27.2545 138.101 27.2545C139.234 27.2545 140.242 26.6383 140.722 25.8291V27.0352H142.834V21.9815C142.834 19.8981 141.357 19.0571 139.432 19.0571L139.431 19.0615Z" fill="black"/>
<path fill-rule="evenodd" clip-rule="evenodd" d="M160.633 19.2882V27.025H162.893V23.2969C162.893 21.5261 163.988 21.0053 164.751 21.0053C165.095 21.0026 165.431 21.1 165.718 21.2849L166.131 19.2399C165.811 19.1144 165.468 19.0536 165.123 19.0612C163.962 19.0612 163.231 19.5645 162.75 20.5886V19.2882H160.633Z" fill="black"/>
<path fill-rule="evenodd" clip-rule="evenodd" d="M176.606 19.0615C175.411 19.0615 174.517 19.7523 174.052 20.419C173.621 19.5582 172.708 19.0615 171.611 19.0615C170.417 19.0615 169.589 19.7106 169.207 20.4585V19.2885H167.027V27.0253H169.29V23.0418C169.29 21.6163 170.055 20.9267 170.768 20.9267C171.415 20.9267 172.008 21.3356 172.008 22.3916V27.0253H174.266V23.0418C174.266 21.5955 175.012 20.9267 175.759 20.9267C176.357 20.9267 176.991 21.3521 176.991 22.3762V27.0253H179.249V21.6767C179.249 19.9387 178.054 19.0615 176.611 19.0615" fill="black"/>
<path fill-rule="evenodd" clip-rule="evenodd" d="M155.132 19.2882H153.085V18.502C153.085 17.4779 153.682 17.1862 154.196 17.1862C154.547 17.1907 154.892 17.2752 155.204 17.433L155.901 15.8727C155.901 15.8727 155.194 15.4209 153.909 15.4209C152.466 15.4209 150.822 16.218 150.822 18.7191V19.2882H147.401V18.502C147.401 17.4779 147.997 17.1862 148.512 17.1862C148.863 17.1862 149.21 17.271 149.52 17.433L150.216 15.8727C149.801 15.6347 149.132 15.4209 148.226 15.4209C146.782 15.4209 145.139 16.218 145.139 18.7191V19.2882H143.831V20.9944H145.143V27.0251H147.401V20.9944H150.827V27.0251H153.085V20.9944H155.132V19.2882Z" fill="black"/>
<path d="M158.737 19.2886H156.481V27.0221H158.737V19.2886Z" fill="black"/>
<path fill-rule="evenodd" clip-rule="evenodd" d="M156.564 17.9734H158.774C160.063 14.0052 164.437 10.5173 169.638 10.5173C175.964 10.5173 181.431 15.2322 181.431 22.5721C181.451 24.0787 181.239 25.5797 180.804 27.025H182.949L182.97 26.9526C183.332 25.5218 183.51 24.0526 183.501 22.5787C183.501 14.3934 177.408 8.50195 169.643 8.50195C163.543 8.50195 158.106 12.6467 156.565 17.9756L156.564 17.9734Z" fill="#4A4AF4"/>
</g>
<rect x="0.5" y="0.5" width="204" height="41" rx="7.5" stroke="#4A4AF4"/>
<defs>
<clipPath id="clip0_2539_4390">
<rect width="48" height="26" fill="white" transform="translate(135.5 8)"/>
</clipPath>
</defs>
</svg>