<svg width="148" height="29" viewBox="0 0 148 29" fill="none" xmlns="http://www.w3.org/2000/svg">
<g id="Logo">
<g id="Logo_2">
<path d="M12.291 15.5038H7.7066V10.5175C7.7066 9.32376 8.84688 8.68657 10.0066 8.68657C11.108 8.68657 12.1436 9.2777 12.2522 10.3563H14.0324C13.9394 8.0916 12.0001 6.92085 10.0066 6.92085C7.96646 6.92085 5.96127 8.12998 5.96127 10.5175V18.4556C5.96127 20.8623 7.96646 22.0753 10.0066 22.0753C11.9225 22.0753 13.7493 20.9737 13.9859 18.8663H12.194C11.9574 19.7952 11.0188 20.3058 10.0104 20.3058C8.84688 20.3058 7.71047 19.6647 7.71047 18.4556V17.1812H14.0751V15.4999H12.7836L12.291 15.5038Z" fill="#E2242D"/>
<path d="M23.337 17.185V10.5175C23.337 8.12998 21.3396 6.92085 19.2956 6.92085C17.302 6.92085 15.3628 8.0916 15.2658 10.3563H17.0538C17.1585 9.2777 18.198 8.68657 19.2956 8.68657C20.4553 8.68657 21.5994 9.32376 21.5994 10.5175V15.5038H15.2309V18.4594C15.2309 20.8662 17.2438 22.0792 19.2917 22.0792C21.1999 22.0792 23.0151 20.9775 23.2478 18.8702H21.4908C21.2542 19.7991 20.3001 20.3096 19.2917 20.3096C18.1359 20.3096 17.0111 19.6686 17.0111 18.4594V17.185H23.337Z" fill="#E2242D"/>
<path d="M14.6491 29C6.57019 29 0 22.4937 0 14.4981C0 6.50245 6.57019 0 14.6491 0C22.7281 0 29.2983 6.50245 29.2983 14.4981C29.2983 22.4937 22.7281 29 14.6491 29ZM14.6491 1.76572C7.55534 1.76572 1.78411 7.47743 1.78411 14.4981C1.78411 21.5187 7.55533 27.2304 14.653 27.2304C21.7507 27.2304 27.518 21.5187 27.518 14.4981C27.518 7.47743 21.7468 1.76572 14.6491 1.76572Z" fill="#E2242D"/>
<path d="M42.4037 15.5921H37.6564V18.6245H42.9584V20.9929H34.7282V8.22211H42.6907V10.5905H37.6564V13.2429H42.4037V15.5921Z" fill="#E2242D"/>
<path d="M44.1258 19.4383L50.2693 10.6864V10.6097H44.6998V8.22211H54.0587V9.88802L48.047 18.5247V18.6015H54.1517V20.989H44.1219L44.1258 19.4383Z" fill="#E2242D"/>
<path d="M55.1214 14.5518C55.1214 18.2483 57.9061 21.0389 61.5985 21.0389C63.6774 21.0389 65.1551 20.4248 66.656 18.9239L65.4266 17.6917C64.3561 18.6552 63.2895 19.2886 61.6722 19.2886C59.1046 19.2886 57.1731 17.2388 57.1731 14.5211V14.4827C57.1731 11.8188 59.1511 9.73064 61.6722 9.73064C62.9947 9.73064 64.1273 10.2066 65.3218 11.266L66.5668 9.84964C65.5468 8.91688 64.1583 7.99947 61.6916 7.99947C57.9449 7.99947 55.1214 10.8016 55.1214 14.5211V14.5518Z" fill="#E2242D"/>
<path d="M80.5721 14.4751C80.5721 10.7786 77.7137 7.98796 73.9244 7.98796C70.1157 7.98796 67.2417 10.7939 67.2417 14.5096V14.548C67.2417 18.2445 70.1002 21.0351 73.8895 21.0351C77.702 21.0351 80.5721 18.2291 80.5721 14.5134V14.4751ZM78.5204 14.5518C78.5204 17.2503 76.5462 19.2847 73.9244 19.2847C71.2831 19.2847 69.2934 17.2349 69.2934 14.5173V14.4789C69.2934 11.7689 71.2676 9.7268 73.8856 9.7268C76.4842 9.7268 78.5165 11.8303 78.5165 14.5134L78.5204 14.5518Z" fill="#E2242D"/>
<path d="M92.7894 20.8163V8.21443H90.889V17.5152L83.6051 8.21443H81.7396V20.8163H83.6439V11.2545L91.1333 20.8163H92.7894Z" fill="#E2242D"/>
<path d="M104.219 8.21443H93.9569V9.96863H98.1107V20.8163H100.069V9.96863H104.219V8.21443Z" fill="#E2242D"/>
<path d="M112.023 17.6879L113.349 20.8163H115.386L109.781 8.1223H107.885L102.28 20.8163H104.243L105.589 17.6879H112.023ZM108.8 10.2143L111.34 16.0258H106.287L108.8 10.2143Z" fill="#E2242D"/>
<path d="M114.746 14.5518C114.746 18.2483 117.53 21.0389 121.223 21.0389C123.302 21.0389 124.779 20.4248 126.28 18.9239L125.051 17.6917C123.98 18.6552 122.914 19.2886 121.296 19.2886C118.733 19.2886 116.797 17.2388 116.797 14.5211V14.4827C116.797 11.8188 118.775 9.73064 121.296 9.73064C122.619 9.73064 123.752 10.2066 124.946 11.266L126.187 9.84964C125.171 8.91688 123.783 7.99947 121.312 7.99947C117.565 7.99947 114.738 10.8016 114.738 14.5211V14.5518H114.746Z" fill="#E2242D"/>
<path d="M137.71 8.21443H127.448V9.96863H131.602V20.8163H133.56V9.96863H137.71V8.21443Z" fill="#E2242D"/>
<path d="M148 17.2733C148 15.3694 146.864 14.3522 143.947 13.6536C141.387 13.0548 140.685 12.5788 140.685 11.4426V11.4042C140.685 10.3947 141.635 9.68842 142.997 9.68842C144.164 9.68842 145.316 10.103 146.511 10.9475L147.538 9.51185C146.212 8.49848 144.773 8.02634 143.036 8.02634C140.511 8.02634 138.746 9.49649 138.746 11.6077V11.6461C138.746 13.9031 140.227 14.6862 142.966 15.3426C145.335 15.8838 146.061 16.3866 146.061 17.496V17.5343C146.061 18.613 145.056 19.3423 143.563 19.3423C142.07 19.3423 140.794 18.8433 139.448 17.7301L138.296 19.0889C139.774 20.3403 141.569 21.0005 143.505 21.0005C146.235 21.0005 148 19.5534 148 17.3117V17.2733Z" fill="#E2242D"/>
</g>
</g>
</svg>
